<svg width="60" height="59" viewBox="0 0 60 59" fill="none" xmlns="http://www.w3.org/2000/svg">
<g filter="url(#filter0_d_6150_2235)">
<rect x="4" y="4" width="52" height="51" rx="8" fill="white"/>
<rect x="4.5" y="4.5" width="51" height="50" rx="7.5" stroke="#0553C7"/>
<rect x="14.5" y="13.5" width="31" height="31" rx="3.5" stroke="black"/>
<path d="M35 21.5H25C22 21.5 20 23 20 26.5V30.06C20 30.43 20.38 30.66 20.71 30.51C21.69 30.06 22.82 29.89 24.01 30.1C26.64 30.57 28.57 33.01 28.5 35.68C28.49 36.1 28.43 36.51 28.32 36.91C28.24 37.22 28.49 37.51 28.81 37.51H35C38 37.51 40 36.01 40 32.51V26.5C40 23 38 21.5 35 21.5ZM30 32C28.62 32 27.5 30.88 27.5 29.5C27.5 28.12 28.62 27 30 27C31.38 27 32.5 28.12 32.5 29.5C32.5 30.88 31.38 32 30 32ZM37.25 31.5C37.25 31.91 36.91 32.25 36.5 32.25C36.09 32.25 35.75 31.91 35.75 31.5V27.5C35.75 27.09 36.09 26.75 36.5 26.75C36.91 26.75 37.25 27.09 37.25 27.5V31.5Z" fill="#FF2323"/>
<path d="M23 31.5C21.8 31.5 20.73 32.03 20 32.86C19.38 33.57 19 34.49 19 35.5C19 36.25 19.21 36.96 19.58 37.56C20.27 38.72 21.54 39.5 23 39.5C24.01 39.5 24.93 39.13 25.63 38.5C25.94 38.24 26.21 37.92 26.42 37.56C26.79 36.96 27 36.25 27 35.5C27 33.29 25.21 31.5 23 31.5ZM24.6 37.08C24.45 37.23 24.26 37.3 24.07 37.3C23.88 37.3 23.69 37.23 23.54 37.08L23.01 36.55L22.46 37.1C22.31 37.25 22.12 37.32 21.93 37.32C21.74 37.32 21.55 37.25 21.4 37.1C21.11 36.81 21.11 36.33 21.4 36.04L21.95 35.49L21.42 34.96C21.13 34.67 21.13 34.19 21.42 33.9C21.71 33.61 22.19 33.61 22.48 33.9L23.01 34.43L23.51 33.93C23.8 33.64 24.28 33.64 24.57 33.93C24.86 34.22 24.86 34.7 24.57 34.99L24.07 35.49L24.6 36.02C24.89 36.31 24.89 36.78 24.6 37.08Z" fill="#FF2323"/>
</g>
<defs>
<filter id="filter0_d_6150_2235" x="0" y="0" width="60" height="59" filterUnits="userSpaceOnUse" color-interpolation-filters="sRGB">
<feFlood flood-opacity="0" result="BackgroundImageFix"/>
<feColorMatrix in="SourceAlpha" type="matrix" values="0 0 0 0 0 0 0 0 0 0 0 0 0 0 0 0 0 0 127 0" result="hardAlpha"/>
<feMorphology radius="1" operator="dilate" in="SourceAlpha" result="effect1_dropShadow_6150_2235"/>
<feOffset/>
<feGaussianBlur stdDeviation="1.5"/>
<feComposite in2="hardAlpha" operator="out"/>
<feColorMatrix type="matrix" values="0 0 0 0 0.0196078 0 0 0 0 0.458824 0 0 0 0 0.901961 0 0 0 0.4 0"/>
<feBlend mode="normal" in2="BackgroundImageFix" result="effect1_dropShadow_6150_2235"/>
<feBlend mode="normal" in="SourceGraphic" in2="effect1_dropShadow_6150_2235" result="shape"/>
</filter>
</defs>
</svg>
