<svg width="12" height="12" viewBox="0 0 12 12" fill="none" xmlns="http://www.w3.org/2000/svg">
<path d="M3.5 5.75C3.20453 5.75 2.91194 5.6918 2.63896 5.57873C2.36598 5.46566 2.11794 5.29992 1.90901 5.09099C1.70008 4.88206 1.53434 4.63402 1.42127 4.36104C1.3082 4.08806 1.25 3.79547 1.25 3.5C1.25 3.20453 1.3082 2.91194 1.42127 2.63896C1.53434 2.36598 1.70008 2.11794 1.90901 1.90901C2.11794 1.70008 2.36598 1.53434 2.63896 1.42127C2.91194 1.3082 3.20453 1.25 3.5 1.25C4.09674 1.25 4.66903 1.48705 5.09099 1.90901C5.51295 2.33097 5.75 2.90326 5.75 3.5C5.75 4.09674 5.51295 4.66903 5.09099 5.09099C4.66903 5.51295 4.09674 5.75 3.5 5.75ZM3.5 10.75C2.90326 10.75 2.33097 10.5129 1.90901 10.091C1.48705 9.66903 1.25 9.09674 1.25 8.5C1.25 7.90326 1.48705 7.33097 1.90901 6.90901C2.33097 6.48705 2.90326 6.25 3.5 6.25C4.09674 6.25 4.66903 6.48705 5.09099 6.90901C5.51295 7.33097 5.75 7.90326 5.75 8.5C5.75 9.09674 5.51295 9.66903 5.09099 10.091C4.66903 10.5129 4.09674 10.75 3.5 10.75ZM8.5 5.75C8.20453 5.75 7.91194 5.6918 7.63896 5.57873C7.36598 5.46566 7.11794 5.29992 6.90901 5.09099C6.70008 4.88206 6.53434 4.63402 6.42127 4.36104C6.3082 4.08806 6.25 3.79547 6.25 3.5C6.25 3.20453 6.3082 2.91194 6.42127 2.63896C6.53434 2.36598 6.70008 2.11794 6.90901 1.90901C7.11794 1.70008 7.36598 1.53434 7.63896 1.42127C7.91194 1.3082 8.20453 1.25 8.5 1.25C9.09674 1.25 9.66903 1.48705 10.091 1.90901C10.5129 2.33097 10.75 2.90326 10.75 3.5C10.75 4.09674 10.5129 4.66903 10.091 5.09099C9.66903 5.51295 9.09674 5.75 8.5 5.75ZM8.5 10.75C7.90326 10.75 7.33097 10.5129 6.90901 10.091C6.48705 9.66903 6.25 9.09674 6.25 8.5C6.25 7.90326 6.48705 7.33097 6.90901 6.90901C7.33097 6.48705 7.90326 6.25 8.5 6.25C9.09674 6.25 9.66903 6.48705 10.091 6.90901C10.5129 7.33097 10.75 7.90326 10.75 8.5C10.75 9.09674 10.5129 9.66903 10.091 10.091C9.66903 10.5129 9.09674 10.75 8.5 10.75Z" fill="#FB105E"/>
</svg>
