<svg width="12" height="12" viewBox="0 0 12 12" fill="none" xmlns="http://www.w3.org/2000/svg">
<path d="M8.5 10H3.5V10.5C3.5 10.6326 3.44732 10.7598 3.35355 10.8536C3.25979 10.9473 3.13261 11 3 11H2C1.86739 11 1.74021 10.9473 1.64645 10.8536C1.55268 10.7598 1.5 10.6326 1.5 10.5V6H1V4H1.5V2.5C1.5 2.23478 1.60536 1.98043 1.79289 1.79289C1.98043 1.60536 2.23478 1.5 2.5 1.5H9.5C9.76522 1.5 10.0196 1.60536 10.2071 1.79289C10.3946 1.98043 10.5 2.23478 10.5 2.5V4H11V6H10.5V10.5C10.5 10.6326 10.4473 10.7598 10.3536 10.8536C10.2598 10.9473 10.1326 11 10 11H9C8.86739 11 8.74021 10.9473 8.64645 10.8536C8.55268 10.7598 8.5 10.6326 8.5 10.5V10ZM2.5 2.5V6H9.5V2.5H2.5ZM3.75 9C3.94891 9 4.13968 8.92098 4.28033 8.78033C4.42098 8.63968 4.5 8.44891 4.5 8.25C4.5 8.05109 4.42098 7.86032 4.28033 7.71967C4.13968 7.57902 3.94891 7.5 3.75 7.5C3.55109 7.5 3.36032 7.57902 3.21967 7.71967C3.07902 7.86032 3 8.05109 3 8.25C3 8.44891 3.07902 8.63968 3.21967 8.78033C3.36032 8.92098 3.55109 9 3.75 9ZM8.25 9C8.44891 9 8.63968 8.92098 8.78033 8.78033C8.92098 8.63968 9 8.44891 9 8.25C9 8.05109 8.92098 7.86032 8.78033 7.71967C8.63968 7.57902 8.44891 7.5 8.25 7.5C8.05109 7.5 7.86032 7.57902 7.71967 7.71967C7.57902 7.86032 7.5 8.05109 7.5 8.25C7.5 8.44891 7.57902 8.63968 7.71967 8.78033C7.86032 8.92098 8.05109 9 8.25 9Z" fill="#08A5C4"/>
</svg>
