<svg width="16" height="17" viewBox="0 0 16 17" fill="none" xmlns="http://www.w3.org/2000/svg">
<path d="M6.00065 15.1666H10.0007C13.334 15.1666 14.6673 13.8333 14.6673 10.4999V6.49992C14.6673 3.16659 13.334 1.83325 10.0007 1.83325H6.00065C2.66732 1.83325 1.33398 3.16659 1.33398 6.49992V10.4999C1.33398 13.8333 2.66732 15.1666 6.00065 15.1666Z" stroke="#B0B0B0" stroke-linecap="round" stroke-linejoin="round"/>
<path d="M10.8541 9.57326C10.1008 10.3266 9.02078 10.5599 8.06745 10.2599L6.34078 11.9799C6.22078 12.1066 5.97412 12.1866 5.79412 12.1599L4.99412 12.0533C4.72745 12.0199 4.48745 11.7666 4.44745 11.5066L4.34078 10.7066C4.31412 10.5333 4.40078 10.2866 4.52078 10.1599L6.24078 8.43993C5.94745 7.48659 6.17412 6.40659 6.92745 5.65326C8.00745 4.57326 9.76745 4.57326 10.8541 5.65326C11.9341 6.72659 11.9341 8.48659 10.8541 9.57326Z" stroke="#B0B0B0" stroke-miterlimit="10" stroke-linecap="round" stroke-linejoin="round"/>
<path d="M6.96706 11.3534L6.40039 10.78" stroke="#B0B0B0" stroke-miterlimit="10" stroke-linecap="round" stroke-linejoin="round"/>
<path d="M8.92928 7.63338H8.93527" stroke="#B0B0B0" stroke-linecap="round" stroke-linejoin="round"/>
</svg>
