<svg width="50" height="25" viewBox="0 0 50 25" fill="none" xmlns="http://www.w3.org/2000/svg">
<rect x="0.5" y="1" width="49" height="23" rx="5.5" fill="#D3EFE5"/>
<rect x="0.5" y="1" width="49" height="23" rx="5.5" stroke="#91D6BE"/>
<path d="M8.66602 15.8334L15.3327 9.16675M15.3327 9.16675H8.66602M15.3327 9.16675V15.8334" stroke="#23AD7C" stroke-linecap="round" stroke-linejoin="round"/>
<path d="M20.6 17.494L20.606 16.534L24.44 13.084C24.76 12.796 24.974 12.524 25.082 12.268C25.194 12.008 25.25 11.742 25.25 11.47C25.25 11.138 25.174 10.838 25.022 10.57C24.87 10.302 24.662 10.09 24.398 9.934C24.138 9.778 23.842 9.7 23.51 9.7C23.166 9.7 22.86 9.782 22.592 9.946C22.324 10.106 22.112 10.32 21.956 10.588C21.804 10.856 21.73 11.148 21.734 11.464H20.642C20.642 10.92 20.768 10.44 21.02 10.024C21.272 9.604 21.614 9.276 22.046 9.04C22.482 8.8 22.976 8.68 23.528 8.68C24.064 8.68 24.544 8.804 24.968 9.052C25.392 9.296 25.726 9.63 25.97 10.054C26.218 10.474 26.342 10.95 26.342 11.482C26.342 11.858 26.294 12.184 26.198 12.46C26.106 12.736 25.962 12.992 25.766 13.228C25.57 13.46 25.324 13.708 25.028 13.972L21.842 16.834L21.704 16.474H26.342V17.494H20.6ZM30.6935 17.68C30.1335 17.68 29.6335 17.554 29.1935 17.302C28.7575 17.046 28.4115 16.7 28.1555 16.264C27.9035 15.824 27.7775 15.324 27.7775 14.764V11.596C27.7775 11.036 27.9035 10.536 28.1555 10.096C28.4115 9.656 28.7575 9.31 29.1935 9.058C29.6335 8.806 30.1335 8.68 30.6935 8.68C31.2535 8.68 31.7535 8.806 32.1935 9.058C32.6335 9.31 32.9795 9.656 33.2315 10.096C33.4835 10.536 33.6095 11.036 33.6095 11.596V14.764C33.6095 15.324 33.4835 15.824 33.2315 16.264C32.9795 16.7 32.6335 17.046 32.1935 17.302C31.7535 17.554 31.2535 17.68 30.6935 17.68ZM30.6935 16.654C31.0335 16.654 31.3415 16.572 31.6175 16.408C31.8935 16.244 32.1135 16.024 32.2775 15.748C32.4415 15.468 32.5235 15.16 32.5235 14.824V11.53C32.5235 11.19 32.4415 10.882 32.2775 10.606C32.1135 10.33 31.8935 10.11 31.6175 9.946C31.3415 9.782 31.0335 9.7 30.6935 9.7C30.3575 9.7 30.0495 9.782 29.7695 9.946C29.4935 10.11 29.2735 10.33 29.1095 10.606C28.9455 10.882 28.8635 11.19 28.8635 11.53V14.824C28.8635 15.16 28.9455 15.468 29.1095 15.748C29.2735 16.024 29.4935 16.244 29.7695 16.408C30.0495 16.572 30.3575 16.654 30.6935 16.654ZM36.2492 17.5L35.5292 16.78L43.4612 8.86L44.1812 9.58L36.2492 17.5ZM42.3812 17.68C41.9852 17.68 41.6232 17.584 41.2952 17.392C40.9712 17.196 40.7112 16.936 40.5152 16.612C40.3192 16.284 40.2212 15.92 40.2212 15.52C40.2212 15.128 40.3212 14.768 40.5212 14.44C40.7212 14.112 40.9852 13.85 41.3132 13.654C41.6412 13.458 41.9972 13.36 42.3812 13.36C42.7772 13.36 43.1392 13.458 43.4672 13.654C43.7952 13.846 44.0552 14.106 44.2472 14.434C44.4432 14.758 44.5412 15.12 44.5412 15.52C44.5412 15.92 44.4432 16.284 44.2472 16.612C44.0552 16.936 43.7952 17.196 43.4672 17.392C43.1392 17.584 42.7772 17.68 42.3812 17.68ZM42.3812 16.738C42.6012 16.738 42.8032 16.682 42.9872 16.57C43.1752 16.458 43.3232 16.31 43.4312 16.126C43.5432 15.942 43.5992 15.74 43.5992 15.52C43.5992 15.3 43.5432 15.098 43.4312 14.914C43.3232 14.726 43.1752 14.578 42.9872 14.47C42.8032 14.358 42.6012 14.302 42.3812 14.302C42.1612 14.302 41.9592 14.358 41.7752 14.47C41.5912 14.578 41.4432 14.726 41.3312 14.914C41.2192 15.098 41.1632 15.3 41.1632 15.52C41.1632 15.74 41.2192 15.942 41.3312 16.126C41.4432 16.31 41.5912 16.458 41.7752 16.57C41.9592 16.682 42.1612 16.738 42.3812 16.738ZM37.3292 13C36.9332 13 36.5712 12.904 36.2432 12.712C35.9152 12.516 35.6532 12.256 35.4572 11.932C35.2652 11.604 35.1692 11.24 35.1692 10.84C35.1692 10.448 35.2692 10.088 35.4692 9.76C35.6692 9.432 35.9332 9.17 36.2612 8.974C36.5892 8.778 36.9452 8.68 37.3292 8.68C37.7252 8.68 38.0852 8.778 38.4092 8.974C38.7372 9.166 38.9992 9.426 39.1952 9.754C39.3912 10.078 39.4892 10.44 39.4892 10.84C39.4892 11.24 39.3912 11.604 39.1952 11.932C38.9992 12.256 38.7372 12.516 38.4092 12.712C38.0852 12.904 37.7252 13 37.3292 13ZM37.3292 12.058C37.5492 12.058 37.7512 12.002 37.9352 11.89C38.1232 11.778 38.2712 11.63 38.3792 11.446C38.4912 11.262 38.5472 11.06 38.5472 10.84C38.5472 10.62 38.4912 10.418 38.3792 10.234C38.2712 10.046 38.1232 9.898 37.9352 9.79C37.7512 9.678 37.5492 9.622 37.3292 9.622C37.1092 9.622 36.9072 9.678 36.7232 9.79C36.5392 9.898 36.3912 10.046 36.2792 10.234C36.1672 10.418 36.1112 10.62 36.1112 10.84C36.1112 11.06 36.1672 11.262 36.2792 11.446C36.3912 11.63 36.5392 11.778 36.7232 11.89C36.9072 12.002 37.1092 12.058 37.3292 12.058Z" fill="#23AD7C"/>
</svg>
