<svg width="51" height="25" viewBox="0 0 51 25" fill="none" xmlns="http://www.w3.org/2000/svg">
<rect x="1" y="1" width="49" height="23" rx="5.5" fill="#FFDDDD"/>
<rect x="1" y="1" width="49" height="23" rx="5.5" stroke="#FF9494"/>
<path d="M9.16602 9.16675L15.8327 15.8334M15.8327 15.8334V9.16675M15.8327 15.8334H9.16602" stroke="#FF2323" stroke-linecap="round" stroke-linejoin="round"/>
<path d="M21.1 17.494L21.106 16.534L24.94 13.084C25.26 12.796 25.474 12.524 25.582 12.268C25.694 12.008 25.75 11.742 25.75 11.47C25.75 11.138 25.674 10.838 25.522 10.57C25.37 10.302 25.162 10.09 24.898 9.934C24.638 9.778 24.342 9.7 24.01 9.7C23.666 9.7 23.36 9.782 23.092 9.946C22.824 10.106 22.612 10.32 22.456 10.588C22.304 10.856 22.23 11.148 22.234 11.464H21.142C21.142 10.92 21.268 10.44 21.52 10.024C21.772 9.604 22.114 9.276 22.546 9.04C22.982 8.8 23.476 8.68 24.028 8.68C24.564 8.68 25.044 8.804 25.468 9.052C25.892 9.296 26.226 9.63 26.47 10.054C26.718 10.474 26.842 10.95 26.842 11.482C26.842 11.858 26.794 12.184 26.698 12.46C26.606 12.736 26.462 12.992 26.266 13.228C26.07 13.46 25.824 13.708 25.528 13.972L22.342 16.834L22.204 16.474H26.842V17.494H21.1ZM31.1935 17.68C30.6335 17.68 30.1335 17.554 29.6935 17.302C29.2575 17.046 28.9115 16.7 28.6555 16.264C28.4035 15.824 28.2775 15.324 28.2775 14.764V11.596C28.2775 11.036 28.4035 10.536 28.6555 10.096C28.9115 9.656 29.2575 9.31 29.6935 9.058C30.1335 8.806 30.6335 8.68 31.1935 8.68C31.7535 8.68 32.2535 8.806 32.6935 9.058C33.1335 9.31 33.4795 9.656 33.7315 10.096C33.9835 10.536 34.1095 11.036 34.1095 11.596V14.764C34.1095 15.324 33.9835 15.824 33.7315 16.264C33.4795 16.7 33.1335 17.046 32.6935 17.302C32.2535 17.554 31.7535 17.68 31.1935 17.68ZM31.1935 16.654C31.5335 16.654 31.8415 16.572 32.1175 16.408C32.3935 16.244 32.6135 16.024 32.7775 15.748C32.9415 15.468 33.0235 15.16 33.0235 14.824V11.53C33.0235 11.19 32.9415 10.882 32.7775 10.606C32.6135 10.33 32.3935 10.11 32.1175 9.946C31.8415 9.782 31.5335 9.7 31.1935 9.7C30.8575 9.7 30.5495 9.782 30.2695 9.946C29.9935 10.11 29.7735 10.33 29.6095 10.606C29.4455 10.882 29.3635 11.19 29.3635 11.53V14.824C29.3635 15.16 29.4455 15.468 29.6095 15.748C29.7735 16.024 29.9935 16.244 30.2695 16.408C30.5495 16.572 30.8575 16.654 31.1935 16.654ZM36.7492 17.5L36.0292 16.78L43.9612 8.86L44.6812 9.58L36.7492 17.5ZM42.8812 17.68C42.4852 17.68 42.1232 17.584 41.7952 17.392C41.4712 17.196 41.2112 16.936 41.0152 16.612C40.8192 16.284 40.7212 15.92 40.7212 15.52C40.7212 15.128 40.8212 14.768 41.0212 14.44C41.2212 14.112 41.4852 13.85 41.8132 13.654C42.1412 13.458 42.4972 13.36 42.8812 13.36C43.2772 13.36 43.6392 13.458 43.9672 13.654C44.2952 13.846 44.5552 14.106 44.7472 14.434C44.9432 14.758 45.0412 15.12 45.0412 15.52C45.0412 15.92 44.9432 16.284 44.7472 16.612C44.5552 16.936 44.2952 17.196 43.9672 17.392C43.6392 17.584 43.2772 17.68 42.8812 17.68ZM42.8812 16.738C43.1012 16.738 43.3032 16.682 43.4872 16.57C43.6752 16.458 43.8232 16.31 43.9312 16.126C44.0432 15.942 44.0992 15.74 44.0992 15.52C44.0992 15.3 44.0432 15.098 43.9312 14.914C43.8232 14.726 43.6752 14.578 43.4872 14.47C43.3032 14.358 43.1012 14.302 42.8812 14.302C42.6612 14.302 42.4592 14.358 42.2752 14.47C42.0912 14.578 41.9432 14.726 41.8312 14.914C41.7192 15.098 41.6632 15.3 41.6632 15.52C41.6632 15.74 41.7192 15.942 41.8312 16.126C41.9432 16.31 42.0912 16.458 42.2752 16.57C42.4592 16.682 42.6612 16.738 42.8812 16.738ZM37.8292 13C37.4332 13 37.0712 12.904 36.7432 12.712C36.4152 12.516 36.1532 12.256 35.9572 11.932C35.7652 11.604 35.6692 11.24 35.6692 10.84C35.6692 10.448 35.7692 10.088 35.9692 9.76C36.1692 9.432 36.4332 9.17 36.7612 8.974C37.0892 8.778 37.4452 8.68 37.8292 8.68C38.2252 8.68 38.5852 8.778 38.9092 8.974C39.2372 9.166 39.4992 9.426 39.6952 9.754C39.8912 10.078 39.9892 10.44 39.9892 10.84C39.9892 11.24 39.8912 11.604 39.6952 11.932C39.4992 12.256 39.2372 12.516 38.9092 12.712C38.5852 12.904 38.2252 13 37.8292 13ZM37.8292 12.058C38.0492 12.058 38.2512 12.002 38.4352 11.89C38.6232 11.778 38.7712 11.63 38.8792 11.446C38.9912 11.262 39.0472 11.06 39.0472 10.84C39.0472 10.62 38.9912 10.418 38.8792 10.234C38.7712 10.046 38.6232 9.898 38.4352 9.79C38.2512 9.678 38.0492 9.622 37.8292 9.622C37.6092 9.622 37.4072 9.678 37.2232 9.79C37.0392 9.898 36.8912 10.046 36.7792 10.234C36.6672 10.418 36.6112 10.62 36.6112 10.84C36.6112 11.06 36.6672 11.262 36.7792 11.446C36.8912 11.63 37.0392 11.778 37.2232 11.89C37.4072 12.002 37.6092 12.058 37.8292 12.058Z" fill="#FF2323"/>
</svg>
