<svg width="18" height="19" viewBox="0 0 18 19" fill="none" xmlns="http://www.w3.org/2000/svg">
<path d="M5.625 2.9375L12.375 2.9375C12.9375 2.9375 13.35 2.96 13.7025 3.0125C16.1925 3.2825 16.6875 4.775 16.6875 7.25V11.75C16.6875 14.225 16.1925 15.7175 13.68 15.995C13.35 16.04 12.9375 16.0625 12.375 16.0625H5.625C5.0625 16.0625 4.65 16.04 4.2975 15.9875C1.8075 15.7175 1.3125 14.225 1.3125 11.75L1.3125 7.25C1.3125 4.775 1.8075 3.2825 4.32 3.005C4.65 2.96 5.0625 2.9375 5.625 2.9375ZM12.375 14.9375C12.885 14.9375 13.245 14.915 13.5375 14.8775C15.06 14.705 15.5625 14.2325 15.5625 11.75L15.5625 7.25C15.5625 4.7675 15.06 4.295 13.56 4.1225C13.245 4.0775 12.885 4.0625 12.375 4.0625L5.625 4.0625C5.115 4.0625 4.755 4.085 4.4625 4.1225C2.94 4.2875 2.4375 4.7675 2.4375 7.25L2.4375 11.75C2.4375 14.2325 2.94 14.705 4.44 14.8775C4.755 14.9225 5.115 14.9375 5.625 14.9375L12.375 14.9375Z" fill="#5D5D5D"/>
<path d="M5.25 10.4375H7.875C8.1825 10.4375 8.4375 10.6925 8.4375 11C8.4375 11.3075 8.1825 11.5625 7.875 11.5625H5.25C4.9425 11.5625 4.6875 11.3075 4.6875 11C4.6875 10.6925 4.9425 10.4375 5.25 10.4375Z" fill="#5D5D5D"/>
<path d="M10.4248 10.25C10.8373 10.25 11.1748 10.5875 11.1748 11C11.1748 11.4125 10.8448 11.75 10.4248 11.75H10.4173C10.0048 11.75 9.66731 11.4125 9.66731 11C9.66731 10.5875 10.0048 10.25 10.4248 10.25Z" fill="#5D5D5D"/>
<path d="M12.6748 10.25C13.0873 10.25 13.4248 10.5875 13.4248 11C13.4248 11.4125 13.0948 11.75 12.6748 11.75C12.2623 11.75 11.9248 11.4125 11.9248 11C11.9248 10.5875 12.2548 10.25 12.6748 10.25Z" fill="#292D32"/>
<path d="M5.24969 6.3125L12.7347 6.3125C13.0422 6.3125 13.3047 6.5675 13.3047 6.875C13.3047 7.1825 13.0572 7.4375 12.7497 7.4375L5.24969 7.4375C4.94219 7.4375 4.68719 7.1825 4.68719 6.875C4.68719 6.5675 4.94219 6.3125 5.24969 6.3125Z" fill="#292D32"/>
</svg>
