<svg width="32" height="32" viewBox="0 0 32 32" fill="none" xmlns="http://www.w3.org/2000/svg">
<rect width="32" height="32" rx="16" fill="#0553C7" fill-opacity="0.12"/>
<path d="M20.7806 12.4267C20.494 10.98 19.4206 10.3467 17.9273 10.3467H12.074C10.314 10.3467 9.14062 11.2267 9.14062 13.28V16.7133C9.14062 18.1933 9.74729 19.06 10.7473 19.4333C10.894 19.4867 11.054 19.5333 11.2206 19.56C11.4873 19.62 11.774 19.6467 12.074 19.6467H17.934C19.694 19.6467 20.8673 18.7667 20.8673 16.7133V13.28C20.8673 12.9667 20.8406 12.6867 20.7806 12.4267ZM11.6873 16C11.6873 16.2733 11.4606 16.5 11.1873 16.5C10.914 16.5 10.6873 16.2733 10.6873 16V14C10.6873 13.7267 10.914 13.5 11.1873 13.5C11.4606 13.5 11.6873 13.7267 11.6873 14V16ZM15.0006 16.76C14.0273 16.76 13.2406 15.9733 13.2406 15C13.2406 14.0267 14.0273 13.24 15.0006 13.24C15.974 13.24 16.7606 14.0267 16.7606 15C16.7606 15.9733 15.974 16.76 15.0006 16.76ZM19.3073 16C19.3073 16.2733 19.0806 16.5 18.8073 16.5C18.534 16.5 18.3073 16.2733 18.3073 16V14C18.3073 13.7267 18.534 13.5 18.8073 13.5C19.0806 13.5 19.3073 13.7267 19.3073 14V16Z" fill="#0553C7"/>
<path d="M22.8665 15.2801V18.7134C22.8665 20.7668 21.6932 21.6534 19.9265 21.6534H14.0732C13.5732 21.6534 13.1265 21.5801 12.7398 21.4334C12.4265 21.3201 12.1532 21.1534 11.9332 20.9401C11.8132 20.8268 11.9065 20.6468 12.0732 20.6468H17.9265C20.3932 20.6468 21.8598 19.1801 21.8598 16.7201V13.2801C21.8598 13.1201 22.0398 13.0201 22.1532 13.1401C22.6065 13.6201 22.8665 14.3201 22.8665 15.2801Z" fill="#0553C7"/>
</svg>
