<svg width="18" height="19" viewBox="0 0 18 19" fill="none" xmlns="http://www.w3.org/2000/svg">
<path d="M15.9225 11C16.245 11 16.5 11.255 16.5 11.5775V13.31C16.5 15.3425 14.8425 17 12.81 17H11.0775C10.755 17 10.5 16.745 10.5 16.4225C10.5 16.1 10.755 15.845 11.0775 15.845H12.81C14.2125 15.845 15.345 14.705 15.345 13.31V11.5775C15.345 11.255 15.6075 11 15.9225 11Z" fill="#5D5D5D"/>
<path d="M2.0775 11C2.3925 11 2.655 11.255 2.655 11.5775V13.31C2.655 14.7125 3.795 15.845 5.19 15.845H6.9225C7.245 15.845 7.5 16.1075 7.5 16.4225C7.5 16.7375 7.245 17 6.9225 17H5.19C3.1575 17 1.5 15.3425 1.5 13.31V11.5775C1.5 11.255 1.755 11 2.0775 11Z" fill="#5D5D5D"/>
<path d="M5.18957 1.99999H6.23207C6.54707 1.99999 6.80957 2.25499 6.80957 2.57749C6.80957 2.89249 6.55457 3.15499 6.23207 3.15499H5.18957C3.78707 3.15499 2.65457 4.29499 2.65457 5.68999V6.72499C2.65457 7.03999 2.39957 7.30249 2.07707 7.30249C1.76207 7.30249 1.49957 7.04749 1.49957 6.72499V5.68999C1.49957 3.65749 3.15707 1.99999 5.18957 1.99999Z" fill="#5D5D5D"/>
<path d="M11.0775 2H12.81C14.8425 2 16.5 3.6575 16.5 5.69V7.4225C16.5 7.745 16.245 8 15.9225 8C15.6 8 15.345 7.745 15.345 7.4225V5.69C15.345 4.2875 14.205 3.155 12.81 3.155H11.0775C10.7625 3.155 10.5 2.9 10.5 2.5775C10.5 2.255 10.755 2 11.0775 2Z" fill="#292D32"/>
<path d="M4.15535 10.0775H5.17535L12.8254 10.0775H13.8454C14.1679 10.0775 14.4229 9.81501 14.4229 9.50001C14.4229 9.18501 14.1679 8.92251 13.8454 8.92251H12.8254L5.17535 8.92251H4.15535C3.83285 8.92251 3.57785 9.18501 3.57785 9.50001C3.57785 9.81501 3.83285 10.0775 4.15535 10.0775Z" fill="#292D32"/>
<path d="M12.8252 8.04501V7.79751C12.8252 6.55251 11.8202 5.54751 10.5752 5.54751H7.4252C6.1802 5.54751 5.17519 6.55251 5.17519 7.79751V8.04501C5.17519 8.13501 5.2427 8.20251 5.3327 8.20251L12.6677 8.20251C12.7577 8.20251 12.8252 8.13501 12.8252 8.04501Z" fill="#292D32"/>
<path d="M12.8252 10.955V11.2025C12.8252 12.4475 11.8202 13.4525 10.5752 13.4525H7.4252C6.1802 13.4525 5.17519 12.4475 5.17519 11.2025V10.955C5.17519 10.865 5.2427 10.7975 5.3327 10.7975H12.6677C12.7577 10.7975 12.8252 10.865 12.8252 10.955Z" fill="#292D32"/>
</svg>
