<svg width="81" height="80" viewBox="0 0 81 80" fill="none" xmlns="http://www.w3.org/2000/svg">
<rect x="0.5" width="80" height="80" rx="40" fill="#2767E7" fill-opacity="0.08"/>
<rect x="12" y="11" width="57" height="57" rx="28.5" fill="#F4F7FC"/>
<rect x="12" y="11" width="57" height="57" rx="28.5" stroke="url(#paint0_linear_2067_25878)"/>
<path d="M49.5 34.1665V36.9665C48.9133 36.8865 48.2467 36.8465 47.5 36.8332V34.1665C47.5 29.9665 46.3133 27.1665 40.5 27.1665C34.6867 27.1665 33.5 29.9665 33.5 34.1665V36.8332C32.7533 36.8465 32.0867 36.8865 31.5 36.9665V34.1665C31.5 30.2998 32.4333 25.1665 40.5 25.1665C48.5667 25.1665 49.5 30.2998 49.5 34.1665Z" fill="url(#paint1_linear_2067_25878)"/>
<path d="M49.4993 36.9668C48.9127 36.8868 48.246 36.8468 47.4993 36.8335H33.4993C32.7527 36.8468 32.086 36.8868 31.4993 36.9668C28.0993 37.3802 27.166 39.0468 27.166 43.5002V46.1668C27.166 51.5002 28.4993 52.8335 33.8327 52.8335H47.166C52.4993 52.8335 53.8327 51.5002 53.8327 46.1668V43.5002C53.8327 39.0468 52.8993 37.3802 49.4993 36.9668ZM36.1127 45.7802C35.8593 46.0202 35.5127 46.1668 35.166 46.1668C34.9927 46.1668 34.8193 46.1268 34.6593 46.0602C34.486 45.9935 34.3527 45.9002 34.2193 45.7802C33.9793 45.5268 33.8327 45.1802 33.8327 44.8335C33.8327 44.6602 33.8727 44.4868 33.9393 44.3268C34.006 44.1668 34.0993 44.0202 34.2193 43.8868C34.3527 43.7668 34.486 43.6735 34.6593 43.6068C35.1527 43.3935 35.7393 43.5135 36.1127 43.8868C36.2327 44.0202 36.326 44.1668 36.3927 44.3268C36.4593 44.4868 36.4993 44.6602 36.4993 44.8335C36.4993 45.1802 36.3527 45.5268 36.1127 45.7802ZM41.726 45.3402C41.6593 45.5002 41.566 45.6468 41.446 45.7802C41.1927 46.0202 40.846 46.1668 40.4993 46.1668C40.1393 46.1668 39.806 46.0202 39.5527 45.7802C39.4327 45.6468 39.3393 45.5002 39.2727 45.3402C39.206 45.1802 39.166 45.0068 39.166 44.8335C39.166 44.4735 39.3127 44.1402 39.5527 43.8868C40.046 43.3935 40.9393 43.3935 41.446 43.8868C41.686 44.1402 41.8327 44.4735 41.8327 44.8335C41.8327 45.0068 41.7927 45.1802 41.726 45.3402ZM46.7793 45.7802C46.526 46.0202 46.1793 46.1668 45.8327 46.1668C45.486 46.1668 45.1393 46.0202 44.886 45.7802C44.646 45.5268 44.4993 45.1935 44.4993 44.8335C44.4993 44.4735 44.646 44.1402 44.886 43.8868C45.3927 43.3935 46.286 43.3935 46.7793 43.8868C46.8327 43.9535 46.886 44.0202 46.9394 44.1002C46.9927 44.1668 47.0327 44.2468 47.0593 44.3268C47.0993 44.4068 47.126 44.4868 47.1393 44.5668C47.1527 44.6602 47.166 44.7535 47.166 44.8335C47.166 45.1802 47.0193 45.5268 46.7793 45.7802Z" fill="url(#paint2_linear_2067_25878)"/>
<defs>
<linearGradient id="paint0_linear_2067_25878" x1="40.5" y1="11.5" x2="40.5" y2="67.5" gradientUnits="userSpaceOnUse">
<stop stop-color="#A9C4EC"/>
<stop offset="1" stop-color="#2C7DF6"/>
</linearGradient>
<linearGradient id="paint1_linear_2067_25878" x1="40.5" y1="25.1665" x2="40.5" y2="36.9665" gradientUnits="userSpaceOnUse">
<stop stop-color="#0553C7"/>
<stop offset="1" stop-color="#B0CCF7"/>
</linearGradient>
<linearGradient id="paint2_linear_2067_25878" x1="40.4993" y1="36.8335" x2="40.4993" y2="52.8335" gradientUnits="userSpaceOnUse">
<stop stop-color="#0553C7"/>
<stop offset="1" stop-color="#B0CCF7"/>
</linearGradient>
</defs>
</svg>
