<svg width="32" height="32" viewBox="0 0 32 32" fill="none" xmlns="http://www.w3.org/2000/svg">
<g clip-path="url(#clip0_2291_10185)">
<path fill-rule="evenodd" clip-rule="evenodd" d="M-0.289062 -0.368652H31.33V31.6313H-0.289062V-0.368652Z" fill="#D94F00"/>
<path fill-rule="evenodd" clip-rule="evenodd" d="M17.703 5.83655H25.8086V13.9585H17.703V5.83655ZM7.90382 18.0668V18.8613H9.30083V23.0649H10.2641V18.8292H11.5648V18.0346L7.90382 18.0673V18.0668ZM7.18436 19.0518V18.2572C6.41157 17.9078 5.52287 17.8023 4.61293 18.2572C3.12069 18.9244 3.06735 22.2284 4.56014 22.8744C5.41729 23.3087 7.20504 23.1073 7.38518 22.7258V20.1103H5.60776V20.7987H6.39035V22.1756C3.81892 23.4251 3.34273 17.4208 7.18436 19.0518ZM13.1316 20.7563H14.0518C14.8138 20.7884 15.0151 22.2284 14.0203 22.2175H13.1316V20.7563ZM13.1316 18.734H14.0518C14.8138 18.8717 14.5389 20.0047 14.0203 20.0363H13.1316V18.734ZM12.1792 17.9612V23.0224H14.7082C15.9991 22.5566 16.0524 20.5555 14.7082 20.3432C15.9463 20.2061 16.0099 17.9291 13.8723 17.9291L12.1792 17.9612ZM16.6445 19.38V20.1315C17.3215 19.941 18.7925 19.4115 18.6548 20.5342C17.364 20.4493 16.4856 20.6823 16.3376 21.4866C16.0943 23.2238 17.9566 23.393 18.7397 22.5353V22.9484H19.6285V19.8986C19.4064 18.9136 17.9359 18.7868 16.6445 19.38ZM17.3955 21.3391C17.5969 21.0741 18.2423 21.0844 18.6761 21.2118V21.879C17.9675 22.6409 16.8246 22.2921 17.3961 21.3386L17.3955 21.3391ZM21.4701 20.2801C21.703 20.0259 22.9411 19.5492 23.1316 20.2801V22.9696H24.1259V20.1212C23.9142 18.9348 22.7816 18.7231 21.4064 19.528V19.0834H20.4649V22.9908H21.4592L21.4701 20.2801ZM27.2475 19.0409L25.9463 20.7878L27.3221 22.9375L28.5177 22.9059L27.0048 20.8412L28.3697 19.0725L27.248 19.0409H27.2475ZM24.8671 17.7593H25.851V22.9375H24.8665V17.7598L24.8671 17.7593Z" fill="white"/>
<path fill-rule="evenodd" clip-rule="evenodd" d="M17.6934 5.83655H25.7989V13.9585H17.6934V5.83655Z" fill="white"/>
</g>
<rect x="0.5" y="0.5" width="31" height="31" rx="15.5" stroke="#D1D1D1"/>
<defs>
<clipPath id="clip0_2291_10185">
<rect width="32" height="32" rx="16" fill="white"/>
</clipPath>
</defs>
</svg>
