<svg width="220" height="219" viewBox="0 0 220 219" fill="none" xmlns="http://www.w3.org/2000/svg">
<path d="M109.998 18.248C59.7193 18.248 18.748 59.2193 18.748 109.498C18.748 159.777 59.7193 200.748 109.998 200.748C160.277 200.748 201.248 159.777 201.248 109.498C201.248 59.2193 160.277 18.248 109.998 18.248ZM153.616 88.5105L101.877 140.249C100.599 141.527 98.8655 142.257 97.0405 142.257C95.2155 142.257 93.4818 141.527 92.2043 140.249L66.3805 114.426C63.7343 111.779 63.7343 107.399 66.3805 104.753C69.0268 102.107 73.4068 102.107 76.053 104.753L97.0405 125.741L143.943 78.838C146.589 76.1918 150.969 76.1918 153.616 78.838C156.262 81.4843 156.262 85.773 153.616 88.5105Z" fill="#0553C7"/>
</svg>
